<svg xmlns="http://www.w3.org/2000/svg"  viewBox="0 0 64 64" width="64px" height="64px"><path fill="#37d0ee" d="M48,54.993H17c-2.209,0-4-1.791-4-4v-40c0-2.209,1.791-4,4-4h21.311c1.06,0,2.077,0.421,2.827,1.17	l9.689,9.68c0.751,0.75,1.173,1.768,1.173,2.83v30.32C52,53.202,50.209,54.993,48,54.993z"/><ellipse cx="32" cy="60.993" opacity=".3" rx="20.125" ry="3"/><path fill="#fff" d="M13,10.993v18c2.762,0,5-2.238,5-5V12.645c0-0.42,0.264-0.795,0.66-0.934 C20.605,11.026,22,9.172,22,6.993h-5C14.791,6.993,13,8.784,13,10.993z" opacity=".3"/><path d="M52,50.993v-23c-2.762,0-5,2.238-5,5v16c0,0.552-0.448,1-1,1h-9c-2.762,0-5,2.238-5,5h16 C50.209,54.993,52,53.202,52,50.993z" opacity=".15"/><line x1="16.5" x2="16.5" y1="12.493" y2="19.493" fill="none" stroke="#fff" stroke-linecap="round" stroke-linejoin="round" stroke-miterlimit="10" stroke-width="3"/><path fill="#008aa9" d="M50.827,17.843l-9.689-9.68C40.806,7.832,40.417,7.577,40,7.382v7.611c0,2.209,1.791,4,4,4h7.616	C51.42,18.572,51.162,18.178,50.827,17.843z"/><path fill="#9c34c2" d="M35.171,31.592l-4.825,6.031C30.122,37.903,30,38.251,30,38.609v1.813C30,41.294,30.706,42,31.578,42	h11.175c1.749,0,2.655-2.086,1.462-3.365l-6.659-7.134C36.9,30.798,35.772,30.841,35.171,31.592z"/><circle cx="41" cy="26" r="3" fill="#ffa1ac"/><path fill="#9c34c2" d="M25.555,28.807l-6.116,7.646C19.155,36.807,19,37.247,19,37.702V40c0,1.105,0.895,2,2,2h20	L28.579,28.691C27.746,27.8,26.317,27.854,25.555,28.807z"/></svg>